<svg width="20" height="20" viewBox="0 0 20 20" fill="none" xmlns="http://www.w3.org/2000/svg">
<path d="M10.4139 0.320625C9.9527 -0.106875 9.2402 -0.106875 8.7827 0.320625L0.382698 8.12063C0.0226976 8.45813 -0.0973024 8.97938 0.0826976 9.43688C0.262698 9.89438 0.701447 10.1981 1.19645 10.1981H1.79645V16.7981C1.79645 18.1219 2.8727 19.1981 4.19645 19.1981H14.9964C16.3202 19.1981 17.3964 18.1219 17.3964 16.7981V10.1981H17.9964C18.4914 10.1981 18.9339 9.89438 19.1139 9.43688C19.2939 8.97938 19.1739 8.45438 18.8139 8.12063L10.4139 0.320625ZM8.99645 11.9981H10.1964C11.1902 11.9981 11.9964 12.8044 11.9964 13.7981V17.3981H7.19645V13.7981C7.19645 12.8044 8.0027 11.9981 8.99645 11.9981Z" fill="#57EB2A"/>
</svg>
