<svg width="23" height="17" viewBox="0 0 23 17" fill="none" xmlns="http://www.w3.org/2000/svg">
<path d="M11.8387 0.42375C12 0.16125 12.2887 0 12.6 0H16.5C16.9987 0 17.4 0.40125 17.4 0.9C17.4 1.39875 16.9987 1.8 16.5 1.8H14.04L16.7475 7.365C17.1487 7.25625 17.5687 7.2 18 7.2C20.6512 7.2 22.8 9.34875 22.8 12C22.8 14.6512 20.6512 16.8 18 16.8C15.3487 16.8 13.2 14.6512 13.2 12C13.2 10.425 13.9575 9.03 15.1275 8.1525L14.3625 6.58125L11.6062 12.0937C11.52 12.2737 11.37 12.4237 11.1788 12.5138C11.1562 12.525 11.1337 12.5325 11.1112 12.54C11.0025 12.5812 10.89 12.6 10.7775 12.5962L9.5625 12.6C9.26625 14.9662 7.24875 16.8 4.8 16.8C2.14875 16.8 0 14.6512 0 12C0 9.34875 2.14875 7.2 4.8 7.2C5.205 7.2 5.595 7.24875 5.97 7.3425L7.03875 5.20875L6.6075 4.2H5.1C4.60125 4.2 4.2 3.79875 4.2 3.3C4.2 2.80125 4.60125 2.4 5.1 2.4H7.2C7.56 2.4 7.88625 2.61375 8.02875 2.94375L8.565 4.2H13.2037L11.79 1.29375C11.655 1.01625 11.67 0.68625 11.835 0.42375H11.8387ZM7.96875 7.37625L6.25875 10.8H9.43875L7.9725 7.37625H7.96875ZM10.8637 9.5625L12.645 6H9.3375L10.8637 9.5625ZM17.19 12.3937L16.0763 10.1062C15.5962 10.5937 15.3 11.2612 15.3 12C15.3 13.4925 16.5075 14.7 18 14.7C19.4925 14.7 20.7 13.4925 20.7 12C20.7 10.5075 19.4925 9.3 18 9.3C17.8987 9.3 17.7937 9.3075 17.6962 9.31875L18.81 11.6062C19.0275 12.0525 18.84 12.5925 18.3937 12.81C17.9475 13.0275 17.4075 12.84 17.19 12.3937ZM4.995 12.6C4.2375 12.6 3.7425 11.8012 4.08375 11.1225L4.99125 9.30375C4.9275 9.3 4.86375 9.29625 4.8 9.29625C3.3075 9.29625 2.1 10.5037 2.1 11.9962C2.1 13.4887 3.3075 14.6962 4.8 14.6962C6.08625 14.6962 7.15875 13.8 7.4325 12.5962H4.995V12.6Z" fill="#FFFFFF"/>
</svg>
