<svg width="20" height="17" viewBox="0 0 20 17" fill="none" xmlns="http://www.w3.org/2000/svg">
<path d="M1.8 13.2C1.47 13.2 1.2 13.47 1.2 13.8C1.2 15.4575 2.5425 16.8 4.2 16.8H15C16.6575 16.8 18 15.4575 18 13.8C18 13.47 17.73 13.2 17.4 13.2H1.8ZM1.2 6.375C1.2 6.8325 1.57125 7.2 2.025 7.2H17.175C17.6325 7.2 18 6.82875 18 6.375C18 5.73 17.9025 5.085 17.595 4.51875C16.7625 2.98875 14.5087 0 9.6 0C4.69125 0 2.4375 2.985 1.605 4.51875C1.2975 5.085 1.2 5.73 1.2 6.375ZM0 10.2C0 10.8637 0.53625 11.4 1.2 11.4H18C18.6638 11.4 19.2 10.8637 19.2 10.2C19.2 9.53625 18.6638 9 18 9H1.2C0.53625 9 0 9.53625 0 10.2ZM9.6 1.5C10.0988 1.5 10.5 1.90125 10.5 2.4C10.5 2.89875 10.0988 3.3 9.6 3.3C9.10125 3.3 8.7 2.89875 8.7 2.4C8.7 1.90125 9.10125 1.5 9.6 1.5ZM4.5 3.6C4.5 3.10125 4.90125 2.7 5.4 2.7C5.89875 2.7 6.3 3.10125 6.3 3.6C6.3 4.09875 5.89875 4.5 5.4 4.5C4.90125 4.5 4.5 4.09875 4.5 3.6ZM13.8 2.7C14.2988 2.7 14.7 3.10125 14.7 3.6C14.7 4.09875 14.2988 4.5 13.8 4.5C13.3013 4.5 12.9 4.09875 12.9 3.6C12.9 3.10125 13.3013 2.7 13.8 2.7Z" fill="#FF093E"/>
</svg>
