<svg width="16" height="18" viewBox="0 0 16 18" fill="none" xmlns="http://www.w3.org/2000/svg">
<path d="M0.5 10.5C0.5 8.61438 0.5 7.67157 1.08579 7.08579C1.67157 6.5 2.61438 6.5 4.5 6.5H11.5C13.3856 6.5 14.3284 6.5 14.9142 7.08579C15.5 7.67157 15.5 8.61438 15.5 10.5V11.5C15.5 14.3284 15.5 15.7426 14.6213 16.6213C13.7426 17.5 12.3284 17.5 9.5 17.5H6.5C3.67157 17.5 2.25736 17.5 1.37868 16.6213C0.5 15.7426 0.5 14.3284 0.5 11.5V10.5Z" stroke="#222222"/>
<path d="M12.5 6.5V5C12.5 2.51472 10.4853 0.5 8 0.5C5.51472 0.5 3.5 2.51472 3.5 5V6.5" stroke="#222222" stroke-linecap="round"/>
</svg>
